<svg width="20" height="19" viewBox="0 0 20 19" fill="none" xmlns="http://www.w3.org/2000/svg">
<path fill-rule="evenodd" clip-rule="evenodd" d="M18.5562 9.03202C18.6744 9.15808 18.7347 9.32881 18.7238 9.50665C18.7129 9.68449 18.6317 9.85487 18.498 9.98032L13.4567 14.7103C13.323 14.8357 13.1478 14.9059 12.9696 14.9055C12.7914 14.9051 12.6249 14.834 12.5066 14.7079C12.3883 14.5819 12.328 14.4112 12.3389 14.2333C12.3499 14.0555 12.4311 13.8851 12.5648 13.7596L17.1019 9.5027L13.0884 5.22494C12.9701 5.09888 12.9098 4.92815 12.9207 4.75031C12.9316 4.57247 13.0128 4.40209 13.1465 4.27664C13.2802 4.1512 13.4555 4.08096 13.6336 4.0814C13.8118 4.08183 13.9783 4.15289 14.0966 4.27895L18.5562 9.03202Z" fill="white"/>
<path fill-rule="evenodd" clip-rule="evenodd" d="M18.7254 9.50689C18.7201 9.59509 18.6974 9.6824 18.6586 9.76383C18.6199 9.84526 18.5658 9.91919 18.4995 9.98141C18.4332 10.0436 18.3559 10.0929 18.2722 10.1264C18.1885 10.1599 18.0999 10.177 18.0116 10.1766L0.9101 10.135C0.7317 10.1346 0.564947 10.0634 0.446523 9.93723C0.3281 9.81101 0.267706 9.64006 0.27863 9.462C0.289554 9.28393 0.370899 9.11333 0.50477 8.98773C0.638643 8.86212 0.814075 8.7918 0.992474 8.79224L18.0939 8.83386C18.1823 8.83396 18.2688 8.85146 18.3484 8.88536C18.4279 8.91926 18.4991 8.96889 18.5578 9.03141C18.6164 9.09393 18.6614 9.16811 18.6902 9.2497C18.719 9.33129 18.7309 9.41869 18.7254 9.50689Z" fill="white"/>
</svg>
