<svg width="27" height="27" viewBox="0 0 27 27" fill="none" xmlns="http://www.w3.org/2000/svg">
<path d="M3.25 0.75L2.687 1.281L1.281 2.687L0.75 3.25L1.156 3.906L3.25 7.406L3.531 7.906H6.47L10.47 11.875C6.896 15.465 2.349 20.027 2.189 20.188C0.622 21.754 0.619 24.32 2.219 25.813C3.782 27.355 6.329 27.395 7.814 25.813L7.844 25.781L14 19.594L20.188 25.812L20.281 25.875C21.851 27.355 24.348 27.375 25.813 25.812V25.782H25.843C27.375 24.215 27.391 21.668 25.813 20.187L25.781 20.157L20.563 14.969C24.074 14.641 26.824 11.676 26.875 8.094H26.906C26.91 8.074 26.906 8.051 26.906 8.031V8C27.004 6.844 26.754 5.738 26.156 4.781L25.47 3.72L20.813 8.376L19.407 6.907L24.157 2.157L22.782 1.595C21.9049 1.20914 20.9582 1.00666 20 1C16.156 1 13 4.156 13 8C13 8.418 13.09 8.781 13.156 9.156C12.719 9.594 12.391 9.953 11.875 10.469L7.906 6.5V3.531L7.406 3.25L3.906 1.156L3.25 0.75ZM20 3C20.14 3 20.238 3.082 20.375 3.094L16.594 6.875L17.281 7.594L20.094 10.5L20.781 11.219L24.75 7.25C24.77 7.48 24.934 7.648 24.906 7.906V8C24.906 10.754 22.66 13 19.906 13C19.539 13 19.094 12.914 18.594 12.812L18.062 12.719L17.687 13.094L6.407 24.406H6.375V24.438C5.665 25.215 4.422 25.234 3.594 24.406V24.375H3.562C2.785 23.665 2.766 22.422 3.594 21.594C3.973 21.214 11.312 13.812 14.906 10.219L15.313 9.813L15.156 9.25C15.0611 8.83982 15.0088 8.42093 15 8C15 5.246 17.246 3 20 3ZM3.562 3.25L5.906 4.688V5.688L5.688 5.906H4.688L3.25 3.563L3.562 3.25ZM18.187 15.406L24.407 21.594V21.625H24.437C25.215 22.335 25.234 23.578 24.407 24.406H24.375V24.438C23.665 25.215 22.422 25.234 21.594 24.406L15.406 18.188L18.187 15.406Z" fill="black"/>
</svg>